<?xml version="1.0" encoding="utf-8"?>
<!-- Generator: Adobe Illustrator 19.0.0, SVG Export Plug-In . SVG Version: 6.00 Build 0)  -->
<svg version="1.1" id="Livello_1" focusable="false"
	 xmlns="http://www.w3.org/2000/svg" xmlns:xlink="http://www.w3.org/1999/xlink" x="0px" y="0px" viewBox="-287 379 36 36"
	 style="enable-background:new -287 379 36 36;" xml:space="preserve">
<style type="text/css">
	.st0{display:none;}
</style>
<title>Alessandro Cudazzo</title>
<path d="M-257,379.5c3,0,5.5,2.5,5.5,5.5v24c0,3-2.5,5.5-5.5,5.5h-24c-3,0-5.5-2.5-5.5-5.5v-24c0-3,2.5-5.5,5.5-5.5H-257 M-257,379
	h-24c-3.3,0-6,2.7-6,6v24c0,3.3,2.7,6,6,6h24c3.3,0,6-2.7,6-6v-24C-251,381.7-253.7,379-257,379z"/>
<path class="st0" d="M-275.4,406.7v-18.7h7.3c3.2,0,5.4,1.9,5.4,4.7c0,1.9-1.4,3.7-3.2,4.1v0.1c2.5,0.3,4.2,2.1,4.2,4.6
	c0,3.3-2.4,5.2-6.3,5.2H-275.4z M-273.1,396.1h3.7c2.8,0,4.3-1.1,4.3-3.1c0-1.8-1.3-2.9-3.5-2.9h-4.4V396.1z M-268.5,404.7
	c2.8,0,4.3-1.1,4.3-3.3c0-2.2-1.5-3.3-4.5-3.3h-4.4v6.6L-268.5,404.7z"/>
<path d="M-271.7,399.3h5.2l-2.6-7.6h-0.1L-271.7,399.3z M-272,389.8c0.5-1.2,1.5-2.2,2.9-2.2c1.5,0,2.5,0.9,2.9,2.2l5.4,14.2
	c0.2,0.4,0.2,0.8,0.2,1c0,1-0.9,1.7-1.9,1.7c-1.2,0-1.7-0.6-2-1.4l-0.8-2.5h-7.6l-0.8,2.4c-0.3,0.8-0.9,1.4-2,1.4
	c-1.1,0-2-0.8-2-1.8c0-0.4,0.1-0.7,0.2-0.9L-272,389.8L-272,389.8z"/>
</svg>
